<svg width="70" height="70" viewBox="0 0 70 70" fill="none" xmlns="http://www.w3.org/2000/svg">
<rect width="70" height="70" rx="12" fill="#EC5990"/>
<path d="M49.7167 10.1334H39.8078C39.4537 9.06517 38.7565 8.13302 37.8169 7.4716C36.8773 6.81018 35.7438 6.45374 34.5802 6.45374C33.4167 6.45374 32.2832 6.81018 31.3436 7.4716C30.404 8.13302 29.7067 9.06517 29.3527 10.1334H19.4373C17.5626 10.1334 15.7647 10.8512 14.4391 12.1289C13.1134 13.4065 12.3687 15.1394 12.3687 16.9462V52.4409C12.3687 54.2478 13.1134 55.9807 14.4391 57.2583C15.7647 58.536 17.5626 59.2537 19.4373 59.2537H49.7167C51.5915 59.2537 53.3894 58.536 54.715 57.2583C56.0406 55.9807 56.7854 54.2478 56.7854 52.4409V16.9462C56.7854 15.1394 56.0406 13.4065 54.715 12.1289C53.3894 10.8512 51.5915 10.1334 49.7167 10.1334ZM29.8475 11.3721C29.9969 11.3753 30.1428 11.3282 30.2601 11.2389C30.3774 11.1496 30.4587 11.0237 30.4901 10.8828C30.6943 9.97962 31.213 9.1709 31.9599 8.59099C32.7069 8.01107 33.6372 7.69486 34.5963 7.69486C35.5555 7.69486 36.4857 8.01107 37.2327 8.59099C37.9796 9.1709 38.4983 9.97962 38.7025 10.8828C38.7339 11.0237 38.8152 11.1496 38.9325 11.2389C39.0498 11.3282 39.1957 11.3753 39.3451 11.3721H42.8023V15.4288C42.8023 15.9216 42.5992 16.3942 42.2377 16.7427C41.8762 17.0911 41.3858 17.2869 40.8745 17.2869H28.3117C27.8004 17.2869 27.31 17.0911 26.9485 16.7427C26.587 16.3942 26.3839 15.9216 26.3839 15.4288V11.3721H29.8475ZM55.5002 52.4409C55.5002 53.9193 54.8908 55.3371 53.8062 56.3824C52.7216 57.4278 51.2506 58.015 49.7167 58.015H19.4373C17.9035 58.015 16.4324 57.4278 15.3478 56.3824C14.2632 55.3371 13.6539 53.9193 13.6539 52.4409V16.9462C13.6539 15.4679 14.2632 14.0501 15.3478 13.0047C16.4324 11.9594 17.9035 11.3721 19.4373 11.3721H25.0987V15.4288C25.0987 16.2501 25.4372 17.0378 26.0397 17.6186C26.6423 18.1993 27.4595 18.5256 28.3117 18.5256H40.8424C41.6946 18.5256 42.5118 18.1993 43.1144 17.6186C43.7169 17.0378 44.0554 16.2501 44.0554 15.4288V11.3721H49.7167C51.2506 11.3721 52.7216 11.9594 53.8062 13.0047C54.8908 14.0501 55.5002 15.4679 55.5002 16.9462V52.4409Z" fill="white"/>
<path d="M32.29 32.3072H20.85C20.6776 32.3072 20.5123 32.3767 20.3904 32.5005C20.2685 32.6243 20.2 32.7921 20.2 32.9672C20.2 33.1422 20.2685 33.3101 20.3904 33.4339C20.5123 33.5577 20.6776 33.6272 20.85 33.6272H32.29C32.4624 33.6272 32.6277 33.5577 32.7496 33.4339C32.8715 33.3101 32.94 33.1422 32.94 32.9672C32.94 32.7921 32.8715 32.6243 32.7496 32.5005C32.6277 32.3767 32.4624 32.3072 32.29 32.3072Z" fill="white"/>
<path d="M48.54 32.3072H37.1C36.9276 32.3072 36.7623 32.3767 36.6404 32.5005C36.5185 32.6243 36.45 32.7921 36.45 32.9672C36.45 33.1422 36.5185 33.3101 36.6404 33.4339C36.7623 33.5577 36.9276 33.6272 37.1 33.6272H48.54C48.7124 33.6272 48.8777 33.5577 48.9996 33.4339C49.1215 33.3101 49.19 33.1422 49.19 32.9672C49.19 32.7921 49.1215 32.6243 48.9996 32.5005C48.8777 32.3767 48.7124 32.3072 48.54 32.3072Z" fill="white"/>
<path d="M31.965 47.8634H20.4925C20.3201 47.8634 20.1548 47.9329 20.0329 48.0567C19.911 48.1805 19.8425 48.3484 19.8425 48.5234C19.8425 48.6984 19.911 48.8663 20.0329 48.9901C20.1548 49.1139 20.3201 49.1834 20.4925 49.1834H31.965C32.1374 49.1834 32.3027 49.1139 32.4246 48.9901C32.5465 48.8663 32.615 48.6984 32.615 48.5234C32.615 48.3484 32.5465 48.1805 32.4246 48.0567C32.3027 47.9329 32.1374 47.8634 31.965 47.8634Z" fill="white"/>
<path d="M48.215 47.8634H36.7425C36.5701 47.8634 36.4048 47.9329 36.2829 48.0567C36.161 48.1805 36.0925 48.3484 36.0925 48.5234C36.0925 48.6984 36.161 48.8663 36.2829 48.9901C36.4048 49.1139 36.5701 49.1834 36.7425 49.1834H48.215C48.3874 49.1834 48.5527 49.1139 48.6746 48.9901C48.7965 48.8663 48.865 48.6984 48.865 48.5234C48.865 48.3484 48.7965 48.1805 48.6746 48.0567C48.5527 47.9329 48.3874 47.8634 48.215 47.8634Z" fill="white"/>
</svg>
