<svg xmlns="http://www.w3.org/2000/svg" xmlns:xlink="http://www.w3.org/1999/xlink" width="450" zoomAndPan="magnify" viewBox="0 0 337.5 113.249998" height="151" preserveAspectRatio="xMidYMid meet" version="1.0"><defs><clipPath id="b57c8c5678"><path d="M 1 0 L 336.140625 0 L 336.140625 112.503906 L 1 112.503906 Z M 1 0 " clip-rule="nonzero"/></clipPath></defs><g clip-path="url(#b57c8c5678)"><path fill="#ff7a01" d="M 277.910156 10.386719 C 275.699219 8.085938 275.769531 4.425781 278.066406 2.210938 C 280.363281 -0.00390625 284.015625 0.0664062 286.222656 2.367188 L 334.4375 52.617188 C 336.59375 54.863281 336.574219 58.40625 334.4375 60.632812 L 286.519531 110.574219 C 285.457031 111.855469 283.855469 112.671875 282.066406 112.671875 L 227.105469 112.671875 C 223.910156 112.671875 221.320312 110.074219 221.320312 106.875 C 221.320312 105.164062 222.0625 103.625 223.238281 102.5625 L 267.3125 56.625 L 224.664062 12.175781 L 185.714844 12.175781 L 224.515625 52.617188 C 226.671875 54.863281 226.65625 58.40625 224.515625 60.632812 L 176.597656 110.574219 C 175.535156 111.855469 173.9375 112.671875 172.144531 112.671875 L 117.183594 112.671875 C 113.988281 112.671875 111.398438 110.074219 111.398438 106.875 C 111.398438 105.164062 112.140625 103.625 113.316406 102.5625 L 157.390625 56.625 L 114.742188 12.175781 L 75.789062 12.175781 L 114.59375 52.617188 C 116.75 54.863281 116.730469 58.40625 114.59375 60.632812 L 66.675781 110.574219 C 65.613281 111.855469 64.015625 112.671875 62.222656 112.671875 L 7.261719 112.671875 C 4.066406 112.671875 1.476562 110.074219 1.476562 106.875 C 1.476562 105.164062 2.214844 103.625 3.394531 102.5625 L 47.46875 56.625 L 3.101562 10.386719 C 0.894531 8.085938 0.964844 4.425781 3.261719 2.210938 C 5.558594 -0.00390625 9.210938 0.0664062 11.417969 2.367188 L 59.628906 52.617188 C 61.789062 54.863281 61.769531 58.40625 59.628906 60.632812 L 20.828125 101.074219 L 59.78125 101.074219 L 102.429688 56.625 L 58.351562 10.6875 C 57.175781 9.625 56.4375 8.085938 56.4375 6.375 C 56.4375 3.171875 59.027344 0.578125 62.222656 0.578125 L 117.179688 0.578125 C 118.972656 0.578125 120.570312 1.394531 121.632812 2.675781 L 169.550781 52.617188 C 171.707031 54.863281 171.691406 58.40625 169.550781 60.632812 L 130.75 101.074219 L 169.699219 101.074219 L 212.347656 56.625 L 168.273438 10.6875 C 167.097656 9.625 166.355469 8.085938 166.355469 6.375 C 166.355469 3.171875 168.945312 0.578125 172.140625 0.578125 L 227.101562 0.578125 C 228.894531 0.578125 230.492188 1.394531 231.554688 2.675781 L 279.472656 52.617188 C 281.632812 54.863281 281.613281 58.40625 279.472656 60.632812 L 240.671875 101.074219 L 279.625 101.074219 L 322.269531 56.625 L 277.90625 10.382812 Z M 277.910156 10.386719 " fill-opacity="1" fill-rule="nonzero"/></g></svg>